<?xml version="1.0" encoding="iso-8859-1"?>
<!-- Generator: Adobe Illustrator 19.0.0, SVG Export Plug-In . SVG Version: 6.00 Build 0)  -->
<svg version="1.1" id="Capa_1" xmlns="http://www.w3.org/2000/svg" xmlns:xlink="http://www.w3.org/1999/xlink" x="0px" y="0px"
	 viewBox="0 0 511.998 511.998" style="enable-background:new 0 0 511.998 511.998;" xml:space="preserve">
<path style="fill:#FFE44C;" d="M224.082,408.756h-29.509c-1.161,0-2.025-1.071-1.781-2.206l10.804-50.096h72.407l-13.666,43.937
	c-0.365,1.173,0.512,2.362,1.739,2.362h17.076c1.586,0,2.415,1.886,1.341,3.054l-67.222,73.095c-1.251,1.36-3.499,0.208-3.125-1.601
	l13.719-66.356C226.1,409.816,225.236,408.756,224.082,408.756z"/>
<g>
	<path style="fill:#FFC200;" d="M244.754,410.946c0.233-1.131-0.629-2.191-1.784-2.191h-18.889c1.155,0,2.017,1.06,1.784,2.191
		l-13.719,66.356c-0.374,1.81,1.874,2.962,3.125,1.601l19.909-21.648L244.754,410.946z"/>
	<path style="fill:#FFC200;" d="M234.474,379.174h34.462l7.067-22.719h-53.518h-18.889l-10.804,50.096
		c-0.244,1.135,0.62,2.206,1.781,2.206h18.889c-1.161,0-2.025-1.071-1.781-2.206l2.344-10.867
		C216.103,386.051,224.621,379.174,234.474,379.174z"/>
</g>
<path style="fill:#A3A3A0;" d="M420.486,264.723l-2.205-4.411c-7.301-14.608-19.643-26.013-34.756-32.112l-8.395-3.388
	l19.971-35.714l2.171-1.193l6.505-3.862l0.391-0.178c5.523-2.521,11.427-3.799,17.55-3.799c19.694,0,36.941,13.808,41.277,32.933
	c4.297-2.559,9.194-3.908,14.21-3.908c15.338,0,27.815,12.478,27.815,27.816c0,15.338-12.478,27.816-27.815,27.816h-56.719V264.723z
	"/>
<path style="fill:#8C8C8C;" d="M400.255,207.441l15.035-26.885c-3.837,0.582-7.559,1.683-11.122,3.309l-0.391,0.178l-6.505,3.862
	l-2.171,1.193l-14.939,26.716l0,0l-5.032,8.999l8.395,3.388c0.664,0.268,1.315,0.558,1.967,0.847l0,0
	c14.212,6.273,25.808,17.298,32.789,31.265l2.205,4.411h19.364c-5.222-18.411-18.072-33.632-34.903-42.034
	C399.317,219.879,397.184,212.933,400.255,207.441z"/>
<path style="fill:#FFE44C;" d="M317.179,223.569c-0.108-4.263-0.509-8.589-1.192-12.857l-0.475-2.964l22.338-35.545
	c1.627-2.589-0.234-5.959-3.292-5.959H302.86c-3.066,0-4.927-3.383-3.284-5.972l32.528-51.283c0.713-1.125,1.952-1.806,3.284-1.806
	h63.729c2.809,0,4.691,2.887,3.559,5.457l-21.114,47.914c-1.133,2.57,0.75,5.457,3.559,5.457h17.404c2.97,0,4.844,3.195,3.394,5.787
	l-29.981,53.614l-5.586-0.989c-3.899-0.691-7.813-1.041-11.633-1.041c-10.6,0-20.677,2.388-29.954,7.098l-11.268,5.721
	L317.179,223.569z"/>
<g>
	<path style="fill:#FFC200;" d="M374.552,225.167l1.385,0.245l0.336-0.6C375.699,224.933,375.12,225.032,374.552,225.167z"/>
	<path style="fill:#FFC200;" d="M330.89,160.273l32.528-51.283c0.713-1.125,1.952-1.806,3.284-1.806h-31.314
		c-1.331,0-2.57,0.681-3.284,1.806l-32.528,51.283c-1.642,2.589,0.218,5.972,3.284,5.972h31.314
		C331.107,166.244,329.247,162.861,330.89,160.273z"/>
	<path style="fill:#FFC200;" d="M351.49,200.328l17.674-28.125c1.627-2.589-0.234-5.959-3.292-5.959h-31.314
		c3.059,0,4.921,3.368,3.292,5.959l-22.338,35.545l0.475,2.964c0.684,4.268,1.084,8.595,1.192,12.857l0.317,12.633l11.268-5.721
		c6.245-3.171,10.802-3.207,17.688-4.254l0.197-9.719C346.766,210.776,348.439,205.182,351.49,200.328z"/>
</g>
<path style="fill:#A3A3A0;" d="M56.335,128.123c-27.214,0-49.355-22.141-49.355-49.355s22.141-49.355,49.355-49.355
	c23.003,0,43.142,16.155,48.155,38.512c5.027-3.019,10.769-4.611,16.655-4.611c17.868,0,32.405,14.537,32.405,32.405
	s-14.537,32.405-32.405,32.405H56.335z"/>
<path style="fill:#8C8C8C;" d="M44.88,78.768c0-0.71,0.015-1.417,0.044-2.12c0.133-3.177,2.772-5.674,5.952-5.674h15.096
	c5.185,0,9.388-4.204,9.388-9.388v-0.874c0-5.316-4.336-9.191-9.652-9.148c-5.533,0.045-8.088-6.754-3.984-10.436
	c0.685-0.615,1.387-1.211,2.105-1.788c3.824-3.072,1.997-9.243-2.887-9.708c-1.52-0.145-3.056-0.218-4.607-0.218
	c-27.532,0-49.871,22.66-49.346,50.31c0.512,27.021,23.149,48.401,50.174,48.401h27.302C61.847,123.091,44.88,102.879,44.88,78.768z
	"/>
<path style="fill:#A3A3A0;" d="M361.805,357.451H132.63c-39.972,0-73.523-32.702-73.303-72.674
	c0.203-37.027,27.922-67.643,64.702-71.462c6.302-48.36,47.793-84.778,96.677-84.778c53.761,0,97.5,43.739,97.5,97.501
	c0,2.316-0.085,4.657-0.252,6.999c-0.091,1.265,1.323,2.061,2.365,1.337c11.308-7.859,24.491-11.989,38.398-11.989
	c37.238,0,67.532,30.295,67.532,67.533c0,35.302-27.565,64.883-62.755,67.346l-0.872,0.198L361.805,357.451z"/>
<path style="fill:#8C8C8C;" d="M232.471,135.588c3.214-1.333,2.576-6.058-0.881-6.445c-3.574-0.4-7.204-0.605-10.883-0.605
	c-48.884,0-90.376,36.416-96.677,84.778c-36.78,3.819-64.499,34.435-64.702,71.462c-0.219,39.972,33.331,72.674,73.303,72.674
	h40.012c-36.352-3.891-64.76-34.741-64.76-72.109c0-35.946,25.841-65.947,60.817-71.577h46.578c8.322,0,15.067-6.746,15.067-15.067
	l0,0c0-8.322-6.746-15.067-15.067-15.067h-17.938c-7.326,0-11.539-8.274-7.291-14.241
	C200.689,154.436,215.409,142.664,232.471,135.588z"/>
<path d="M121.145,56.333c-4.213,0-8.366,0.671-12.318,1.973c-8.308-21.24-29.103-35.874-52.492-35.874
	C25.272,22.433,0,47.704,0,78.768c0,23.475,14.434,43.64,34.891,52.091c4.875,2.014,10.236-1.579,10.236-6.854v-0.159
	c0-3.038-1.877-5.714-4.679-6.885c-14.952-6.241-25.491-21.005-25.491-38.194c0-22.816,18.563-41.379,41.379-41.379
	c19.384,0,36.341,13.678,40.436,32.567c0.361,1.666,1.138,3.245,2.422,4.366c2.587,2.258,6.213,2.448,8.95,0.722
	c5.454-3.44,12.093-4.608,18.578-3.119c10.501,2.412,18.238,11.689,18.818,22.447c0.76,14.078-10.476,25.774-24.393,25.774H81.11
	c-4.091,0-7.406,3.316-7.406,7.407v0.143c0,4.091,3.316,7.406,7.406,7.406h39.296c21.507,0,39.604-16.934,40.112-38.435
	C161.042,74.518,143.178,56.333,121.145,56.333z"/>
<path d="M477.205,202.111c-3.382,0-6.719,0.49-9.919,1.442c-7.509-18.085-25.441-30.467-45.569-30.467
	c-3.048,0-6.046,0.288-8.987,0.829l1.996-3.57c1.028-1.839,1.356-4.031,0.726-6.041c-1.004-3.204-3.93-5.273-7.149-5.273h-18.445
	l21.3-48.334c1.331-3.021,0.552-6.654-2.176-8.865c-1.365-1.106-3.113-1.629-4.87-1.629h-70.591c-2.56,0-4.944,1.31-6.315,3.473
	l-31.514,49.684c-19.002-19.602-45.595-31.804-74.987-31.804c-25.218,0-48.593,9.056-66.813,24.224
	c-3.36,2.797-3.615,7.867-0.524,10.959l0.087,0.087c2.724,2.724,7.056,2.877,10.018,0.414c15.61-12.981,35.635-20.726,57.233-20.726
	c49.363,0,89.524,40.16,89.524,89.525c0,3.368-0.195,6.794-0.58,10.189c-0.307,2.705,0.656,5.47,2.816,7.128
	c2.775,2.13,6.57,2.049,9.227-0.067c10.636-8.457,23.439-12.927,37.026-12.927c32.84,0,59.556,26.717,59.556,59.557
	c0,31.131-24.307,57.217-55.336,59.389c-0.384,0.027-87.587,0.167-87.587,0.167c-0.02,0-0.039,0-0.059,0H204.08
	c-0.008,0-0.017,0-0.026,0h-71.489c-35.775,0-65.669-29.272-65.26-65.045c0.375-32.88,25.139-59.99,57.898-63.216
	c3.465-0.341,6.245-2.981,6.678-6.435c1.122-8.947,3.568-17.446,7.108-25.325c1.251-2.785,0.619-6.056-1.539-8.216
	c-0.037-0.037-0.074-0.074-0.11-0.11c-3.681-3.681-9.885-2.505-12.019,2.244c-3.356,7.473-5.866,15.425-7.387,23.747
	c-17.233,2.996-33.014,11.635-44.924,24.7c-14.095,15.461-21.492,35.77-20.593,56.797c1.821,42.572,37.594,75.815,80.205,75.815
	h62.112l-9.112,42.25c-0.658,3.055,0.642,6.296,3.497,8.017c1.198,0.723,2.6,1.038,4,1.038h24.627l-13.349,64.566
	c-0.636,3.078,0.549,6.34,3.186,8.051c1.261,0.818,2.677,1.212,4.078,1.212c2.043,0,4.054-0.837,5.507-2.417l72.501-78.833
	c2.403-2.613,2.685-6.632,0.44-9.605c-1.441-1.908-3.772-2.935-6.163-2.935h-12.864l9.747-31.343c0,0,84.17-0.119,84.891-0.346
	c37.994-3.556,67.508-35.8,67.508-74.166c0-6.285-0.795-12.384-2.267-18.217h45.548c19.468,0,35.815-15.931,35.484-35.396
	C511.673,217.396,496.189,202.111,477.205,202.111z M224.464,457.124l9.789-47.352c0.456-2.203-0.105-4.493-1.525-6.237
	c-1.42-1.744-3.55-2.756-5.798-2.756h-24.734l7.84-36.348h55.131l-11.384,36.601c-0.706,2.27-0.291,4.74,1.119,6.655
	c1.41,1.914,3.645,3.044,6.022,3.044h6.205L224.464,457.124z M318.642,189.649c-2.135-5.728-4.757-11.22-7.82-16.425h18.142
	L318.642,189.649z M358.719,215.405c-11.861,0-23.246,2.723-33.566,7.963c-0.119-4.724-0.56-9.369-1.289-13.918l24.965-39.726
	c1.448-2.305,1.53-5.214,0.213-7.596c-1.316-2.383-3.824-3.862-6.545-3.862h-32.204l27.342-43.107h55.213l-21.3,48.334
	c-1.018,2.312-0.802,4.983,0.579,7.1c1.381,2.117,3.737,3.393,6.264,3.393h17.163l-23.811,42.58
	C367.51,215.819,363.163,215.405,358.719,215.405z M477.205,256.746h-51.787c-8.112-16.231-21.975-29.11-38.906-35.943
	l14.438-25.819c0.068-0.038,0.137-0.068,0.204-0.108l6.326-3.755c4.476-2.043,9.264-3.078,14.237-3.078
	c16.176,0,30.314,11.472,33.621,27.278c0.502,2.398,2.145,4.398,4.4,5.354c2.256,0.955,4.838,0.748,6.909-0.56
	c3.162-1.994,6.812-3.048,10.559-3.048c10.94,0,19.839,8.9,19.839,19.839C497.044,247.846,488.144,256.746,477.205,256.746z"/>
<g>
</g>
<g>
</g>
<g>
</g>
<g>
</g>
<g>
</g>
<g>
</g>
<g>
</g>
<g>
</g>
<g>
</g>
<g>
</g>
<g>
</g>
<g>
</g>
<g>
</g>
<g>
</g>
<g>
</g>
</svg>
